# xmcd
#
# Track frame offsets: 
#        150
#        23853
#        47922
#        72339
#        101780
#        122548
#        141080
#        161673
#        183015
#
# Disc length: 2715 seconds
#
# Revision: 4
# Processed by: cddbd v1.5.2PL0 Copyright (c) Steve Scherf et al.
# Submitted via: ExactAudioCopyFreeDBPlugin 1.0
#
DISCID=780a9909
DTITLE=IndianDigitalAudio.com - Rabbi Shergill - Rabbi
DYEAR=2004
DGENRE=Fusion
TTITLE0=Bulla Ki Jaana
TTITLE1=Tere Bin
TTITLE2=Heer
TTITLE3=Ishtihaar
TTITLE4=Totia Manmotia
TTITLE5=Ajj Nachna
TTITLE6=Gill 'Te Guitar
TTITLE7=Ek Geet Hijar Da
TTITLE8=Jugni
EXTD=Info by kaustubh@kaustubh.com
EXTT0=
EXTT1=
EXTT2=
EXTT3=
EXTT4=
EXTT5=
EXTT6=
EXTT7=
EXTT8=
PLAYORDER=
